# 3ds Max Wavefront OBJ Exporter v0.97b - (c)2007 guruware
# File Created: 26.02.2021 10:22:53

mtllib SM_INT_BrokenGlassB.mtl

#
# object SM_INT_BrokenGlassB
#

v  -67.9861 0.5000 125.4890
v  -17.9437 0.5000 13.4262
v  -125.2600 0.5000 -38.8296
v  -175.3024 0.5000 73.2332
v  -115.9584 0.3500 36.1406
v  17.7570 0.3500 36.1406
v  17.7570 0.3500 -103.4889
v  -115.9584 0.3500 -103.4889
v  -19.0091 0.5000 -29.4414
v  92.1582 0.5000 -71.6926
v  51.6966 0.5000 -187.7767
v  -59.4707 0.5000 -145.5255
v  -78.4297 0.6500 52.6372
v  -33.6182 0.6500 -3.1291
v  -87.0225 0.6500 -49.9226
v  -131.8340 0.6500 5.8437
v  -85.5092 0.2500 -51.1331
v  -6.0121 0.2500 -51.1330
v  -6.0120 0.2500 -134.1463
v  -85.5092 0.2500 -134.1463
v  5.6161 0.3500 24.9367
v  116.8855 0.3500 67.2267
v  168.3782 0.3500 -80.5055
v  57.1087 0.3500 -122.7954
v  -30.3812 0.6500 48.7628
v  93.2691 0.6500 83.3602
v  126.4011 0.6500 -45.7590
v  2.7508 0.6500 -80.3564
v  -57.8849 0.5000 67.5503
v  67.4656 0.5000 159.2037
v  155.2368 0.5000 28.3091
v  29.8864 0.5000 -63.3443
v  -64.4352 0.2750 -21.6050
v  -28.5396 0.2750 119.9592
v  107.0285 0.2750 82.4760
v  71.1329 0.2750 -59.0882
v  -124.0634 0.2500 96.4316
v  -14.3155 0.2500 162.5970
v  49.0474 0.2500 47.9952
v  -60.7004 0.2500 -18.1703
# 40 vertices

vn 0.0000 1.0000 -0.0000
# 1 vertex normals

vt 0.4983 0.5017 0.5017
vt 0.9966 0.5017 0.5017
vt 0.9966 1.0000 1.0000
vt 0.4983 1.0000 1.0000
vt 0.4963 0.0015 0.0015
vt 0.9946 0.0015 0.0015
vt 0.9946 0.5000 0.5000
vt 0.4963 0.5000 0.5000
vt 0.0000 0.5017 0.5017
vt 0.0000 1.0000 1.0000
vt 0.0018 0.0015 0.0015
vt 0.5000 0.0015 0.0015
vt 0.5000 0.5000 0.5000
vt 0.0018 0.5000 0.5000
# 14 texture coords

o SM_INT_BrokenGlassB
g SM_INT_BrokenGlassB
usemtl MI_INT_BrokenGlassB
s 1
f 1/1/1 2/2/1 3/3/1 
f 1/1/1 3/3/1 4/4/1 
f 5/5/1 6/6/1 7/7/1 
f 5/5/1 7/7/1 8/8/1 
f 9/1/1 10/2/1 11/3/1 
f 9/1/1 11/3/1 12/4/1 
f 13/1/1 14/2/1 15/3/1 
f 13/1/1 15/3/1 16/4/1 
f 17/6/1 18/5/1 19/8/1 
f 17/6/1 19/8/1 20/7/1 
f 21/2/1 22/1/1 23/4/1 
f 21/2/1 23/4/1 24/3/1 
f 25/9/1 26/1/1 27/4/1 
f 25/9/1 27/4/1 28/10/1 
f 29/9/1 30/1/1 31/4/1 
f 29/9/1 31/4/1 32/10/1 
f 33/11/1 34/12/1 35/13/1 
f 33/11/1 35/13/1 36/14/1 
f 37/11/1 38/12/1 39/13/1 
f 37/11/1 39/13/1 40/14/1 
# 0 polygons - 20 triangles

