# Blender v2.77 (sub 0) OBJ File: ''
# www.blender.org
mtllib Strong Seed.mtl
o Mesh_0122
v 0.105216 0.659906 0.183878
v 0.105216 0.659906 -0.157921
v 0.007861 1.201115 0.013861
v 0.007861 -0.000427 0.011902
v 0.206229 0.182188 0.353996
v 0.404594 0.182188 0.012199
v 0.238743 0.434079 0.403234
v 0.469622 0.434079 0.012609
v 0.174336 0.675310 0.305971
v 0.340811 0.675310 0.013002
v 0.007861 0.779295 0.013172
v -0.158613 0.675310 -0.279966
v 0.174338 0.675310 -0.279966
v -0.223018 0.434080 -0.378016
v 0.238743 0.434080 -0.378016
v -0.190504 0.182188 -0.329597
v 0.206229 0.182188 -0.329597
v -0.190504 0.182188 0.353996
v -0.223018 0.434079 0.403234
v -0.158615 0.675310 0.305971
v -0.186846 0.659906 0.012980
v -0.388871 0.182188 0.012199
v -0.453899 0.434079 0.012609
v -0.325088 0.675310 0.013002
v -0.026217 1.036210 0.208904
v 0.041958 1.205428 -0.181446
v -0.310136 1.260166 0.233683
v -0.241962 1.429384 -0.107840
v -0.686476 1.342668 0.233816
v -0.618301 1.511887 -0.156532
v 0.009441 0.999055 -0.157368
v 0.006260 1.242584 0.184824
v 0.278074 1.200611 -0.279112
v 0.274891 1.444140 0.038670
v 0.653243 1.277722 -0.352226
v 0.650063 1.521251 -0.010035
vt 2.2813 0.3281
vt 1.2813 0.3281
vt 1.6406 0.0039
vt 0.2813 1.0000
vt 0.0000 0.8516
vt 0.5000 0.8516
vt 0.5000 0.6406
vt 0.0000 0.6406
vt 0.5000 0.4414
vt 0.0000 0.4414
vt 0.2539 0.3555
vt 2.2227 0.3555
vt 2.5000 0.4414
vt 2.0000 0.4414
vt 2.0000 0.6406
vt 2.5000 0.6406
vt 2.0000 0.8516
vt 2.5000 0.8516
vt 2.2500 1.0000
vt 0.7500 1.0000
vt 1.0000 0.8516
vt 1.0000 0.6406
vt 1.0000 0.4414
vt 0.7227 0.3555
vt 0.2813 0.3281
vt 1.2188 1.0000
vt 1.5000 0.8516
vt 1.5000 0.6406
vt 1.5000 0.4414
vt 1.2852 0.3555
vt 1.7813 1.0000
vt 1.7539 0.3555
vt 2.7852 0.3555
vt 3.0000 0.4414
vt 3.0000 0.6406
vt 3.0000 0.8516
vt 2.7188 1.0000
vt 1.0000 0.0039
vt 0.0000 0.0039
vt 1.0000 0.5039
vt 0.0000 0.5039
vt 1.0000 1.0000
vt 0.0000 1.0000
vt 0.0000 0.0039
vt 1.0000 0.0039
vt 0.0000 0.5039
vt 1.0000 0.5039
vt 0.0000 1.0000
vt 1.0000 1.0000
vn 0.9793 0.2021 -0.0079
vn 0.9793 0.2021 0.0080
vn 0.9887 0.1499 -0.0000
vn 0.4062 -0.8829 0.2357
vn 0.8465 -0.2053 0.4913
vn 0.8402 -0.2177 0.4966
vn 0.7894 0.3989 0.4666
vn 0.7888 0.4205 0.4482
vn 0.2940 0.9411 0.1671
vn 0.2943 0.9409 0.1674
vn 0.0000 0.9425 -0.3343
vn 0.0000 0.3765 -0.9264
vn 0.0000 -0.1888 -0.9820
vn 0.0000 -0.8818 -0.4716
vn 0.0000 -0.8822 0.4709
vn 0.0000 -0.1918 0.9814
vn 0.0000 0.3739 0.9275
vn 0.0000 0.9423 0.3347
vn -0.4970 0.1774 0.8494
vn -0.4062 -0.8829 0.2357
vn -0.4063 -0.8827 0.2362
vn -0.8440 -0.2187 0.4898
vn -0.8424 -0.2061 0.4979
vn -0.7824 0.4170 0.4625
vn -0.7983 0.3960 0.4536
vn -0.2944 0.9409 0.1675
vn -0.2940 0.9411 0.1667
vn -0.2940 0.9411 0.1671
vn -0.4968 0.1801 -0.8490
vn -0.4065 -0.8827 -0.2359
vn -0.4066 -0.8825 -0.2362
vn -0.8467 -0.2038 -0.4914
vn -0.8405 -0.2162 -0.4968
vn -0.7889 0.4002 -0.4663
vn -0.7891 0.4001 -0.4660
vn -0.7884 0.4217 -0.4480
vn -0.7884 0.4219 -0.4477
vn -0.2939 0.9412 -0.1665
vn -0.2941 0.9410 -0.1674
vn -0.2939 0.9412 -0.1670
vn 0.2939 0.9412 -0.1670
vn 0.2941 0.9410 -0.1675
vn 0.2939 0.9412 -0.1666
vn 0.7980 0.3974 -0.4531
vn 0.7979 0.3973 -0.4534
vn 0.7819 0.4183 -0.4622
vn 0.8427 -0.2045 -0.4981
vn 0.8443 -0.2172 -0.4900
vn 0.4065 -0.8827 -0.2359
vn 0.4067 -0.8825 -0.2363
vn 0.5876 0.6999 0.4060
vn 0.6231 0.6442 0.4436
vn 0.1896 0.8642 0.4660
vn 0.1434 0.8986 0.4146
vn -0.6579 0.6107 -0.4407
vn -0.6795 0.5790 -0.4505
vn -0.2712 0.7627 -0.5872
vn -0.2359 0.7907 -0.5649
usemtl Tex_0076_0_dds
s 1
f 1/1/1 2/2/2 3/3/3
f 4/4/4 6/5/4 5/6/4
f 5/6/5 6/5/5 7/7/5
f 6/5/6 8/8/6 7/7/6
f 7/7/7 8/8/7 9/9/7
f 8/8/8 10/10/8 9/9/8
f 9/9/9 10/10/10 11/11/9
f 11/12/11 13/13/11 12/14/11
f 12/14/12 13/13/12 14/15/12
f 13/13/12 15/16/12 14/15/12
f 14/15/13 15/16/13 16/17/13
f 15/16/13 17/18/13 16/17/13
f 16/17/14 17/18/14 4/19/14
f 4/20/15 5/6/15 18/21/15
f 18/21/16 5/6/16 19/22/16
f 5/6/16 7/7/16 19/22/16
f 19/22/17 7/7/17 20/23/17
f 7/7/17 9/9/17 20/23/17
f 20/23/18 9/9/18 11/24/18
f 21/25/19 1/1/19 3/3/19
f 4/26/20 18/21/20 22/27/21
f 22/27/22 18/21/22 23/28/22
f 18/21/23 19/22/23 23/28/23
f 23/28/24 19/22/24 24/29/24
f 19/22/25 20/23/25 24/29/25
f 24/29/26 20/23/27 11/30/28
f 2/2/29 21/25/29 3/3/29
f 4/31/30 22/27/31 16/17/30
f 16/17/32 22/27/32 14/15/32
f 22/27/33 23/28/33 14/15/33
f 14/15/34 23/28/34 12/14/35
f 23/28/36 24/29/36 12/14/37
f 12/14/38 24/29/39 11/32/40
f 11/33/41 10/34/42 13/13/43
f 13/13/44 10/34/45 15/16/45
f 10/34/46 8/35/46 15/16/46
f 15/16/47 8/35/47 17/18/47
f 8/35/48 6/36/48 17/18/48
f 17/18/49 6/36/50 4/37/49
usemtl Tex_0077_0_dds
f 25/38/51 26/39/51 27/40/51
f 26/39/52 28/41/52 27/40/52
f 27/40/53 28/41/53 29/42/53
f 28/41/54 30/43/54 29/42/54
f 31/44/55 32/45/55 33/46/55
f 32/45/56 34/47/56 33/46/56
f 33/46/57 34/47/57 35/48/57
f 34/47/58 36/49/58 35/48/58
